<?xml version="1.0" encoding="UTF-8" standalone="no"?>
<!-- Created with Inkscape (http://www.inkscape.org/) -->

<svg
   xmlns:dc="http://purl.org/dc/elements/1.1/"
   xmlns:cc="http://creativecommons.org/ns#"
   xmlns:rdf="http://www.w3.org/1999/02/22-rdf-syntax-ns#"
   xmlns:svg="http://www.w3.org/2000/svg"
   xmlns="http://www.w3.org/2000/svg"
   xmlns:sodipodi="http://sodipodi.sourceforge.net/DTD/sodipodi-0.dtd"
   xmlns:inkscape="http://www.inkscape.org/namespaces/inkscape"
   width="64px"
   height="64px"
   id="svg3035"
   version="1.1"
   inkscape:version="0.48.4 r9939"
   sodipodi:docname="if.svg">
  <defs
     id="defs3037" />
  <sodipodi:namedview
     id="base"
     pagecolor="#ffffff"
     bordercolor="#666666"
     borderopacity="1.0"
     inkscape:pageopacity="0.0"
     inkscape:pageshadow="2"
     inkscape:zoom="5.5"
     inkscape:cx="39.116318"
     inkscape:cy="24.189512"
     inkscape:current-layer="g3115"
     showgrid="true"
     inkscape:document-units="px"
     inkscape:grid-bbox="true"
     inkscape:window-width="1301"
     inkscape:window-height="744"
     inkscape:window-x="65"
     inkscape:window-y="24"
     inkscape:window-maximized="1" />
  <metadata
     id="metadata3040">
    <rdf:RDF>
      <cc:Work
         rdf:about="">
        <dc:format>image/svg+xml</dc:format>
        <dc:type
           rdf:resource="http://purl.org/dc/dcmitype/StillImage" />
        <dc:title></dc:title>
      </cc:Work>
    </rdf:RDF>
  </metadata>
  <g
     id="layer1"
     inkscape:label="Layer 1"
     inkscape:groupmode="layer">
    <g
       id="g3115"
       transform="matrix(1.0736027,0,0,1.0736027,-4.3948765,-1.499369)">
      <path
         style="fill:#7aba05;fill-opacity:1;stroke:none"
         d="M 27.375 1.28125 C 26.181983 1.28125 25.21875 2.2132324 25.21875 3.40625 L 25.21875 13.59375 C 25.21875 14.786768 26.181983 15.71875 27.375 15.71875 L 37.375 15.71875 C 38.568018 15.71875 39.53125 14.786768 39.53125 13.59375 L 39.53125 3.40625 C 39.53125 2.2132324 38.568018 1.28125 37.375 1.28125 L 27.375 1.28125 z M 43.15625 1.28125 C 41.963233 1.28125 41 2.2132324 41 3.40625 L 41 13.59375 C 41 14.786768 41.963233 15.71875 43.15625 15.71875 L 53.125 15.71875 C 54.318018 15.71875 55.28125 14.786768 55.28125 13.59375 L 55.28125 3.40625 C 55.28125 2.2132324 54.318018 1.28125 53.125 1.28125 L 43.15625 1.28125 z M 11.625 17.1875 C 10.431983 17.1875 9.46875 18.150733 9.46875 19.34375 L 9.46875 29.5 C 9.46875 30.693018 10.431983 31.65625 11.625 31.65625 L 21.625 31.65625 C 22.818018 31.65625 23.78125 30.693018 23.78125 29.5 L 23.78125 19.34375 C 23.78125 18.150733 22.818018 17.1875 21.625 17.1875 L 11.625 17.1875 z M 27.375 17.1875 C 26.181983 17.1875 25.21875 18.150733 25.21875 19.34375 L 25.21875 29.5 C 25.21875 30.693018 26.181983 31.65625 27.375 31.65625 L 37.375 31.65625 C 38.568018 31.65625 39.53125 30.693018 39.53125 29.5 L 39.53125 19.34375 C 39.53125 18.150733 38.568018 17.1875 37.375 17.1875 L 27.375 17.1875 z M 43.15625 33.15625 C 41.963233 33.15625 41 34.119483 41 35.3125 L 41 45.46875 C 41 46.661768 41.963233 47.625 43.15625 47.625 L 53.125 47.625 C 54.318018 47.625 55.28125 46.661768 55.28125 45.46875 L 55.28125 35.3125 C 55.28125 34.119483 54.318018 33.15625 53.125 33.15625 L 43.15625 33.15625 z M 11.625 33.1875 C 10.431983 33.1875 9.46875 34.150733 9.46875 35.34375 L 9.46875 45.5 C 9.46875 46.693018 10.431983 47.65625 11.625 47.65625 L 21.625 47.65625 C 22.818018 47.65625 23.78125 46.693018 23.78125 45.5 L 23.78125 35.34375 C 23.78125 34.150733 22.818018 33.1875 21.625 33.1875 L 11.625 33.1875 z M 27.375 33.1875 C 26.181983 33.1875 25.21875 34.150733 25.21875 35.34375 L 25.21875 45.5 C 25.21875 46.693018 26.181983 47.65625 27.375 47.65625 L 37.375 47.65625 C 38.568018 47.65625 39.53125 46.693018 39.53125 45.5 L 39.53125 35.34375 C 39.53125 34.150733 38.568018 33.1875 37.375 33.1875 L 27.375 33.1875 z M 11.625 48.90625 C 10.431983 48.90625 9.46875 49.869483 9.46875 51.0625 L 9.46875 61.21875 C 9.46875 62.411768 10.431983 63.375 11.625 63.375 L 21.625 63.375 C 22.818018 63.375 23.78125 62.411768 23.78125 61.21875 L 23.78125 51.0625 C 23.78125 49.869483 22.818018 48.90625 21.625 48.90625 L 11.625 48.90625 z M 27.375 48.90625 C 26.629364 48.90625 25.979985 49.271106 25.59375 49.84375 C 25.553652 49.901164 25.534529 49.96992 25.5 50.03125 C 25.465511 50.094365 25.403156 50.15196 25.375 50.21875 C 25.371271 50.227339 25.378622 50.241353 25.375 50.25 C 25.326073 50.370686 25.276583 50.494431 25.25 50.625 C 25.247898 50.63469 25.251974 50.646512 25.25 50.65625 C 25.245448 50.675888 25.254019 50.69891 25.25 50.71875 C 25.232112 50.830892 25.21875 50.945166 25.21875 51.0625 C 25.218599 51.073086 25.21875 51.083128 25.21875 51.09375 C 25.218147 51.114882 25.21875 51.134971 25.21875 51.15625 L 25.21875 61.21875 L 25.21875 61.25 C 25.220726 61.388388 25.223434 61.52528 25.25 61.65625 C 25.251895 61.666323 25.247968 61.677477 25.25 61.6875 C 25.278357 61.817926 25.324494 61.942021 25.375 62.0625 C 25.694354 62.854679 26.443465 63.4375 27.34375 63.4375 L 37.375 63.4375 C 38.264863 63.4375 39.01781 62.871367 39.34375 62.09375 C 39.459754 61.828802 39.53125 61.527453 39.53125 61.21875 L 39.53125 51.15625 C 39.53125 50.975165 39.51015 50.793139 39.46875 50.625 C 39.442167 50.494431 39.392677 50.370686 39.34375 50.25 C 39.289427 50.120299 39.233424 49.99037 39.15625 49.875 C 39.151196 49.867295 39.1614 49.851385 39.15625 49.84375 C 39.091174 49.74888 39.016361 49.676809 38.9375 49.59375 C 38.927703 49.583131 38.916258 49.572919 38.90625 49.5625 C 38.896052 49.5522 38.885401 49.541343 38.875 49.53125 C 38.485762 49.142012 37.971509 48.90625 37.375 48.90625 L 27.375 48.90625 z "
         transform="matrix(0.93144326,0,0,0.93144326,4.0935781,1.3965772)"
         id="use3157" />
      <path
         transform="matrix(1.230286,0,0,1.230286,1.9306857,1.6600764)"
         style="fill:#d61a0c;fill-opacity:1;stroke:none"
         d="m 20.827509,6.5315032 c 0,3.4437143 -2.791682,6.2353968 -6.235396,6.2353968 -3.443715,0 -6.2353968,-2.7916825 -6.2353968,-6.2353968 0,-3.4437143 2.7916818,-6.23539638 6.2353968,-6.23539638 3.443714,0 6.235396,2.79168208 6.235396,6.23539638 z"
         id="path3959" />
    </g>
  </g>
</svg>
