<?xml version="1.0" encoding="UTF-8" standalone="no"?>
<!-- Created with Inkscape (http://www.inkscape.org/) -->

<svg
   xmlns:dc="http://purl.org/dc/elements/1.1/"
   xmlns:cc="http://creativecommons.org/ns#"
   xmlns:rdf="http://www.w3.org/1999/02/22-rdf-syntax-ns#"
   xmlns:svg="http://www.w3.org/2000/svg"
   xmlns="http://www.w3.org/2000/svg"
   version="1.1"
   width="64"
   height="64"
   id="svg6048">
  <defs
     id="defs6050" />
  <metadata
     id="metadata6053">
    <rdf:RDF>
      <cc:Work
         rdf:about="">
        <dc:format>image/svg+xml</dc:format>
        <dc:type
           rdf:resource="http://purl.org/dc/dcmitype/StillImage" />
        <dc:title></dc:title>
      </cc:Work>
    </rdf:RDF>
  </metadata>
  <g
     id="layer1">
    <path
       d="m 1525.3303,1246.3115 a 29.294424,29.294424 0 1 1 -58.5888,0 29.294424,29.294424 0 1 1 58.5888,0 z"
       transform="matrix(1.0701565,0,0,1.0701565,-1569.2306,-1301.7632)"
       id="path5360"
       style="fill:#2cbd62;fill-opacity:1;stroke:none" />
    <path
       d="m 1525.3303,1246.3115 a 29.294424,29.294424 0 1 1 -58.5888,0 29.294424,29.294424 0 1 1 58.5888,0 z"
       transform="matrix(0.90671574,0,0,0.90671574,-1324.7173,-1098.0651)"
       id="path5362"
       style="opacity:0.27572016;fill:#ffffff;fill-opacity:1;stroke:none" />
    <path
       d="m 1525.3303,1246.3115 a 29.294424,29.294424 0 1 1 -58.5888,0 29.294424,29.294424 0 1 1 58.5888,0 z"
       transform="matrix(0.16185584,0,0,0.16185584,-210.3802,-169.7375)"
       id="path5364"
       style="opacity:0.56378605;fill:#2ca02c;fill-opacity:1;stroke:none" />
    <g
       transform="matrix(0.96450299,0,0,0.96450299,-1411.804,-1169.1771)"
       id="g5366"
       style="fill:#2cbd62;fill-opacity:1;stroke:none">
      <rect
         width="4.0585575"
         height="22.521811"
         ry="0.35420933"
         x="1493.8064"
         y="1223.1367"
         id="rect5368"
         style="fill:#2cbd62;fill-opacity:1;stroke:none" />
      <path
         d="m 1495.0258,1214.6869 c 1.478,0 5.179,6.5984 5.9181,7.8785 0.739,1.28 4.6029,7.7844 3.8638,9.0644 -0.739,1.28 -8.3039,1.186 -9.7819,1.186 -1.4781,0 -9.043,0.094 -9.782,-1.186 -0.739,-1.28 3.1248,-7.7844 3.8639,-9.0644 0.739,-1.2801 4.44,-7.8785 5.9181,-7.8785 z"
         transform="matrix(0.36069142,0,0,0.36069142,956.60737,781.59737)"
         id="path5370"
         style="fill:#2cbd62;fill-opacity:1;stroke:none" />
    </g>
    <g
       transform="matrix(0.96450299,0,0,0.96450299,-1410.9902,-1169.2486)"
       id="g5372"
       style="fill:#ffffff;fill-opacity:1;stroke:none">
      <rect
         width="4.0585575"
         height="22.521811"
         ry="0.35420933"
         x="1493.8064"
         y="1223.1367"
         id="rect5374"
         style="fill:#ffffff;fill-opacity:1;stroke:none" />
      <path
         d="m 1495.0258,1214.6869 c 1.478,0 5.179,6.5984 5.9181,7.8785 0.739,1.28 4.6029,7.7844 3.8638,9.0644 -0.739,1.28 -8.3039,1.186 -9.7819,1.186 -1.4781,0 -9.043,0.094 -9.782,-1.186 -0.739,-1.28 3.1248,-7.7844 3.8639,-9.0644 0.739,-1.2801 4.44,-7.8785 5.9181,-7.8785 z"
         transform="matrix(0.36069142,0,0,0.36069142,956.60737,781.59737)"
         id="path5376"
         style="fill:#ffffff;fill-opacity:1;stroke:none" />
    </g>
    <g
       transform="matrix(0,0.67091984,-0.67091984,0,867.37123,-971.28588)"
       id="g5384"
       style="fill:#2cbd62;fill-opacity:1;stroke:none">
      <path
         d="m 1525.3303,1246.3115 a 29.294424,29.294424 0 1 1 -58.5888,0 29.294424,29.294424 0 1 1 58.5888,0 z"
         transform="matrix(0.13694302,0,0,0.13694302,1291.1642,1075.6379)"
         id="path5386"
         style="fill:#2cbd62;fill-opacity:1;stroke:none" />
      <g
         transform="translate(0.18553951,1.2626907)"
         id="g5388"
         style="fill:#2cbd62;fill-opacity:1;stroke:none">
        <rect
           width="4.0585575"
           height="22.521811"
           ry="0.35420933"
           x="1493.8064"
           y="1223.1367"
           id="rect5390"
           style="fill:#2cbd62;fill-opacity:1;stroke:none" />
        <path
           d="m 1495.0258,1214.6869 c 1.478,0 5.179,6.5984 5.9181,7.8785 0.739,1.28 4.6029,7.7844 3.8638,9.0644 -0.739,1.28 -8.3039,1.186 -9.7819,1.186 -1.4781,0 -9.043,0.094 -9.782,-1.186 -0.739,-1.28 3.1248,-7.7844 3.8639,-9.0644 0.739,-1.2801 4.44,-7.8785 5.9181,-7.8785 z"
           transform="matrix(0.36069142,0,0,0.36069142,956.60737,781.59737)"
           id="path5392"
           style="fill:#2cbd62;fill-opacity:1;stroke:none" />
      </g>
    </g>
    <g
       transform="matrix(0,0.67091984,-0.67091984,0,867.88662,-971.83698)"
       id="g5394"
       style="fill:#ffffff;fill-opacity:1;stroke:none">
      <path
         d="m 1525.3303,1246.3115 a 29.294424,29.294424 0 1 1 -58.5888,0 29.294424,29.294424 0 1 1 58.5888,0 z"
         transform="matrix(0.13694302,0,0,0.13694302,1291.1642,1075.6379)"
         id="path5396"
         style="fill:#ffffff;fill-opacity:1;stroke:none" />
      <g
         transform="translate(0.18553951,1.2626907)"
         id="g5398"
         style="fill:#ffffff;fill-opacity:1;stroke:none">
        <rect
           width="4.0585575"
           height="22.521811"
           ry="0.35420933"
           x="1493.8064"
           y="1223.1367"
           id="rect5400"
           style="fill:#ffffff;fill-opacity:1;stroke:none" />
        <path
           d="m 1495.0258,1214.6869 c 1.478,0 5.179,6.5984 5.9181,7.8785 0.739,1.28 4.6029,7.7844 3.8638,9.0644 -0.739,1.28 -8.3039,1.186 -9.7819,1.186 -1.4781,0 -9.043,0.094 -9.782,-1.186 -0.739,-1.28 3.1248,-7.7844 3.8639,-9.0644 0.739,-1.2801 4.44,-7.8785 5.9181,-7.8785 z"
           transform="matrix(0.36069142,0,0,0.36069142,956.60737,781.59737)"
           id="path5402"
           style="fill:#ffffff;fill-opacity:1;stroke:none" />
      </g>
    </g>
    <path
       d="m 1525.3303,1246.3115 a 29.294424,29.294424 0 1 1 -58.5888,0 29.294424,29.294424 0 1 1 58.5888,0 z"
       transform="matrix(0.05663354,0,0,0.05663354,-52.96383,-67.90128)"
       id="path5404"
       style="opacity:0.69958849;fill:#ffffff;fill-opacity:1;stroke:none" />
    <path
       d="m 1525.3303,1246.3115 a 29.294424,29.294424 0 1 1 -58.5888,0 29.294424,29.294424 0 1 1 58.5888,0 z"
       transform="matrix(0.05663354,0,0,0.05663354,-24.019929,-40.012597)"
       id="path5406"
       style="opacity:0.69958849;fill:#ffffff;fill-opacity:1;stroke:none" />
    <path
       d="m 1525.3303,1246.3115 a 29.294424,29.294424 0 1 1 -58.5888,0 29.294424,29.294424 0 1 1 58.5888,0 z"
       transform="matrix(0.05663354,0,0,0.05663354,-82.058482,-38.354424)"
       id="path5408"
       style="opacity:0.69958849;fill:#ffffff;fill-opacity:1;stroke:none" />
    <path
       d="m 1525.3303,1246.3115 a 29.294424,29.294424 0 1 1 -58.5888,0 29.294424,29.294424 0 1 1 58.5888,0 z"
       transform="matrix(0.05663354,0,0,0.05663354,-52.96383,-10.0135)"
       id="path5410"
       style="opacity:0.69958849;fill:#ffffff;fill-opacity:1;stroke:none" />
    <g
       transform="matrix(-0.13335585,0.09976242,-0.40189553,-0.53722752,732.13646,552.12246)"
       id="g5510"
       style="fill:#ff2a2a;fill-opacity:1;stroke:none">
      <path
         d="m 1525.3303,1246.3115 a 29.294424,29.294424 0 1 1 -58.5888,0 29.294424,29.294424 0 1 1 58.5888,0 z"
         transform="matrix(0.13694302,0,0,0.13694302,1291.1642,1075.6379)"
         id="path5512"
         style="fill:#ff2a2a;fill-opacity:1;stroke:none" />
      <g
         transform="translate(0.18553951,1.2626907)"
         id="g5514"
         style="fill:#ff2a2a;fill-opacity:1;stroke:none">
        <rect
           width="4.0585575"
           height="22.521811"
           ry="0.35420933"
           x="1493.8064"
           y="1223.1367"
           id="rect5516"
           style="fill:#ff2a2a;fill-opacity:1;stroke:none" />
        <path
           d="m 1495.0258,1214.6869 c 1.478,0 5.179,6.5984 5.9181,7.8785 0.739,1.28 4.6029,7.7844 3.8638,9.0644 -0.739,1.28 -8.3039,1.186 -9.7819,1.186 -1.4781,0 -9.043,0.094 -9.782,-1.186 -0.739,-1.28 3.1248,-7.7844 3.8639,-9.0644 0.739,-1.2801 4.44,-7.8785 5.9181,-7.8785 z"
           transform="matrix(0.36069142,0,0,0.36069142,956.60737,781.59737)"
           id="path5518"
           style="fill:#ff2a2a;fill-opacity:1;stroke:none" />
      </g>
    </g>
    <path
       d="m 758.33742,1938.7839 a 1.3982085,1.3982085 0 1 1 -2.79642,0 1.3982085,1.3982085 0 1 1 2.79642,0 z"
       transform="matrix(1.1938751,0,0,1.1938751,-872.14174,-2282.8955)"
       id="path5520"
       style="fill:#ff2a2a;fill-opacity:1;stroke:none" />
  </g>
</svg>
